<svg width="70" height="20" fill="none" xmlns="http://www.w3.org/2000/svg"><path d="M9.54 0c.296.219.502.49.644.837l6.53 15.454c.4.953.811 1.893 1.21 2.833.232.528.026.85-.54.85-3.89 0-7.78 0-11.67.026-.335 0-.49-.103-.54-.412-.014-.116-.052-.232-.065-.348-.052-.772.077-.927.837-.927 2.937-.013 5.873-.013 8.81-.013.631 0 .683-.09.438-.67-1.842-4.288-3.67-8.59-5.5-12.89-.051-.117-.103-.245-.193-.426-.4.902-.773 1.752-1.134 2.602C7.208 9.58 6.01 12.234 4.89 14.913c-.477 1.146-.953 2.292-1.43 3.426-.193.463-.425.914-.618 1.39-.09.207-.206.271-.425.258-.284-.013-.567 0-.85 0-.4 0-.567-.18-.567-.58 0-.18.064-.334.142-.502 2.524-5.937 5.062-11.873 7.586-17.81C8.883.72 9.05.36 9.218 0h.322Z" fill="url(#a)"/><path d="M32.26 9.904c.541.177.97.476 1.288.896.317.41.476.924.476 1.54 0 .85-.327 1.507-.98 1.974-.653.457-1.605.686-2.856.686h-4.872V5.2h4.592c1.157 0 2.049.229 2.674.686.625.448.938 1.069.938 1.862 0 .485-.112.915-.336 1.288a2.3 2.3 0 0 1-.924.868Zm-5.124-3.276V9.33h2.576c.635 0 1.12-.112 1.456-.336.345-.233.518-.57.518-1.008 0-.448-.173-.784-.518-1.008-.336-.233-.821-.35-1.456-.35h-2.576Zm2.94 6.944c1.41 0 2.114-.471 2.114-1.414s-.705-1.414-2.114-1.414h-2.94v2.828h2.94Zm8.578-6.132c1.102 0 1.942.266 2.52.798.588.523.882 1.316.882 2.38V15h-1.652v-.91a2.074 2.074 0 0 1-.924.756c-.392.168-.868.252-1.428.252-.56 0-1.05-.093-1.47-.28a2.391 2.391 0 0 1-.98-.798 2.09 2.09 0 0 1-.336-1.162c0-.672.248-1.209.742-1.61.504-.41 1.293-.616 2.366-.616h1.932v-.112c0-.523-.158-.924-.476-1.204-.308-.28-.77-.42-1.386-.42-.42 0-.835.065-1.246.196-.4.13-.742.313-1.022.546l-.686-1.274a4.248 4.248 0 0 1 1.414-.686 6.292 6.292 0 0 1 1.75-.238Zm-.238 6.384c.44 0 .826-.098 1.162-.294a1.66 1.66 0 0 0 .728-.868v-.868H38.5c-1.008 0-1.512.331-1.512.994 0 .317.126.57.378.756.252.187.602.28 1.05.28ZM48.544 7.44c.943 0 1.699.275 2.268.826.57.55.854 1.367.854 2.45V15h-1.75v-4.06c0-.653-.154-1.143-.462-1.47-.308-.336-.746-.504-1.316-.504-.644 0-1.152.196-1.526.588-.373.383-.56.938-.56 1.666V15h-1.75V7.524h1.666v.966c.29-.345.654-.607 1.092-.784a3.93 3.93 0 0 1 1.484-.266ZM58.646 15l-1.918-2.59L54.796 15h-1.932l2.912-3.794-2.786-3.682h1.946l1.834 2.45 1.834-2.45h1.89l-2.8 3.654L60.62 15h-1.974Zm5.985-7.56c1.101 0 1.941.266 2.52.798.588.523.882 1.316.882 2.38V15h-1.652v-.91a2.074 2.074 0 0 1-.924.756c-.392.168-.868.252-1.428.252-.56 0-1.05-.093-1.47-.28a2.391 2.391 0 0 1-.98-.798 2.09 2.09 0 0 1-.336-1.162c0-.672.247-1.209.742-1.61.504-.41 1.293-.616 2.366-.616h1.932v-.112c0-.523-.159-.924-.476-1.204-.308-.28-.77-.42-1.386-.42-.42 0-.835.065-1.246.196a3.05 3.05 0 0 0-1.022.546l-.686-1.274a4.248 4.248 0 0 1 1.414-.686 6.291 6.291 0 0 1 1.75-.238Zm-.238 6.384c.439 0 .826-.098 1.162-.294.345-.205.588-.495.728-.868v-.868h-1.806c-1.008 0-1.512.331-1.512.994 0 .317.126.57.378.756.252.187.602.28 1.05.28Z" fill="#394247"/><defs><linearGradient id="a" x1="9.509" y1="0" x2=".942" y2="18.858" gradientUnits="userSpaceOnUse"><stop stop-color="#65D1C2"/><stop offset="1" stop-color="#2987E0"/></linearGradient></defs></svg>