<svg width="1200" height="675" viewBox="0 0 1200 675" fill="none" xmlns="http://www.w3.org/2000/svg">
    <path d="M197.395 491.797H274.482L327.367 282.317L382.045 491.797H459.132L546.527 176.45H478.403L419.244 406.654L359.636 176.45H299.132L237.731 406.654L179.916 176L110 176.45L197.395 491.797Z" fill="#161D25"/>
    <path d="M661.516 494.5C722.917 494.5 762.805 458.46 769.975 413.411H707.679C702.3 435.035 684.373 446.297 658.827 446.297C627.006 446.297 605.942 426.475 604.597 393.589V390.436H771.768C773.113 383.228 773.561 375.569 773.561 368.812C772.665 300.787 726.054 257.54 657.034 257.54C585.774 257.54 538.715 304.391 538.715 376.47C538.715 448.099 584.877 494.5 661.516 494.5ZM605.942 348.99C609.527 321.51 630.144 304.842 657.482 304.842C686.166 304.842 705.438 320.609 709.919 348.99H605.942Z" fill="#161D25"/>
    <path d="M1057.28 438.188C1041.15 438.188 1034.87 431.431 1034.87 415.213V313.852H1087.31V260.243H1034.87V195.371H971.681V425.574C971.681 469.723 993.641 491.797 1037.56 491.797H1090V438.188H1057.28ZM864.118 260.243H806.751V491.797H869.944V378.272C869.944 343.134 884.286 317.906 921.933 317.906H947.031V260.243H936.274C900.42 260.243 882.493 274.208 869.944 294.931L864.118 260.243Z" fill="#161D25"/>
</svg>
